<svg width="12" height="12" viewBox="0 0 12 12" fill="none" xmlns="http://www.w3.org/2000/svg">
<path d="M5.645 0C5.39548 0 5.15617 0.0991232 4.97973 0.275564C4.80329 0.452004 4.70417 0.691309 4.70417 0.940833V4.70417H0.940833C0.691309 4.70417 0.452004 4.80329 0.275564 4.97973C0.0991232 5.15617 0 5.39548 0 5.645C0 5.89453 0.0991232 6.13383 0.275564 6.31027C0.452004 6.48671 0.691309 6.58583 0.940833 6.58583H4.70417V10.3492C4.70417 10.5987 4.80329 10.838 4.97973 11.0144C5.15617 11.1909 5.39548 11.29 5.645 11.29C5.89453 11.29 6.13383 11.1909 6.31027 11.0144C6.48671 10.838 6.58583 10.5987 6.58583 10.3492V6.58583H10.3492C10.5987 6.58583 10.838 6.48671 11.0144 6.31027C11.1909 6.13383 11.29 5.89453 11.29 5.645C11.29 5.39548 11.1909 5.15617 11.0144 4.97973C10.838 4.80329 10.5987 4.70417 10.3492 4.70417H6.58583V0.940833C6.58583 0.691309 6.48671 0.452004 6.31027 0.275564C6.13383 0.0991232 5.89453 0 5.645 0Z" fill="#B0B3BB"/>
</svg>
