<svg width="12" height="2" viewBox="0 0 12 2" fill="none" xmlns="http://www.w3.org/2000/svg">
<path d="M0.940833 0C0.691309 0 0.452004 0.0991237 0.275564 0.275564C0.0991232 0.452005 0 0.691309 0 0.940834C0 1.19036 0.0991232 1.42966 0.275564 1.6061C0.452004 1.78254 0.691309 1.88167 0.940833 1.88167C7.00031 1.88167 4.8727 1.88167 10.3492 1.88167C10.5987 1.88167 10.838 1.78254 11.0144 1.6061C11.1909 1.42966 11.29 1.19036 11.29 0.940834C11.29 0.691309 11.1909 0.452005 11.0144 0.275564C10.838 0.0991237 10.5987 0 10.3492 0C4.92231 0 6.93889 0 0.940833 0Z" fill="#B0B3BB"/>
</svg>
