  <svg width="49" height="29" viewBox="0 0 49 29" fill="none" xmlns="http://www.w3.org/2000/svg">
<rect width="49" height="29" fill="#003BE5"/>
<path d="M12.8834 6.675L13.4784 6.02V9.215L13.0684 8.86H16.0784V9.915H13.0684L13.4784 9.535V13H12.1684V5.625H16.5234V6.675H12.8834ZM17.3787 13V7.69H18.6938V9.455L18.3888 9.285C18.4221 9.055 18.4838 8.83833 18.5738 8.635C18.6638 8.42833 18.7838 8.24833 18.9338 8.095C19.0838 7.93833 19.2654 7.81667 19.4788 7.73C19.6921 7.64333 19.9354 7.6 20.2088 7.6C20.4254 7.6 20.5954 7.61667 20.7188 7.65C20.8454 7.68 20.9238 7.705 20.9538 7.725L20.7138 8.93C20.6804 8.90667 20.6121 8.87833 20.5088 8.845C20.4088 8.80833 20.2738 8.79 20.1038 8.79C19.8338 8.79 19.6071 8.83667 19.4238 8.93C19.2438 9.02 19.1004 9.14333 18.9938 9.3C18.8871 9.45333 18.8104 9.62333 18.7638 9.81C18.7171 9.99333 18.6938 10.1767 18.6938 10.36V13H17.3787ZM22.1754 10.77V9.835H25.8904L25.7404 10.085C25.7404 10.065 25.7404 10.0433 25.7404 10.02C25.7404 9.99333 25.7404 9.97167 25.7404 9.955C25.7404 9.725 25.6887 9.51 25.5854 9.31C25.4821 9.10667 25.3254 8.94333 25.1154 8.82C24.9054 8.69333 24.6387 8.63 24.3154 8.63C23.9954 8.63 23.7171 8.69833 23.4804 8.835C23.2471 8.96833 23.0654 9.16167 22.9354 9.415C22.8087 9.66833 22.7454 9.97167 22.7454 10.325C22.7454 10.6883 22.8071 11.0017 22.9304 11.265C23.0537 11.525 23.2337 11.725 23.4704 11.865C23.7104 12.0017 24.0021 12.07 24.3454 12.07C24.5787 12.07 24.7804 12.0483 24.9504 12.005C25.1204 11.9617 25.2587 11.9033 25.3654 11.83C25.4754 11.7533 25.5571 11.6717 25.6104 11.585C25.6671 11.4983 25.7004 11.4117 25.7104 11.325H27.0204C27.0004 11.5483 26.9254 11.7667 26.7954 11.98C26.6687 12.19 26.4904 12.3817 26.2604 12.555C26.0304 12.725 25.7504 12.8617 25.4204 12.965C25.0937 13.065 24.7204 13.115 24.3004 13.115C23.7304 13.115 23.2321 12.9983 22.8054 12.765C22.3787 12.5317 22.0454 12.2067 21.8054 11.79C21.5687 11.3733 21.4504 10.8967 21.4504 10.36C21.4504 9.81 21.5704 9.32833 21.8104 8.915C22.0537 8.50167 22.3904 8.18 22.8204 7.95C23.2504 7.71667 23.7437 7.6 24.3004 7.6C24.8737 7.6 25.3687 7.71667 25.7854 7.95C26.2054 8.18333 26.5287 8.50833 26.7554 8.925C26.9821 9.33833 27.0954 9.82 27.0954 10.37C27.0954 10.44 27.0937 10.515 27.0904 10.595C27.0871 10.675 27.0821 10.7333 27.0754 10.77H22.1754ZM30.5609 13.1C30.3709 13.1 30.1776 13.0817 29.9809 13.045C29.7843 13.0083 29.6043 12.94 29.4409 12.84C29.2776 12.74 29.1459 12.5933 29.0459 12.4C28.9459 12.2067 28.8959 11.9517 28.8959 11.635C28.8959 11.5617 28.8959 11.4883 28.8959 11.415C28.8959 11.3383 28.8959 11.26 28.8959 11.18V8.74H27.6409V7.69H28.1509C28.3243 7.69 28.4609 7.68333 28.5609 7.67C28.6609 7.65333 28.7343 7.61667 28.7809 7.56C28.8276 7.50333 28.8576 7.415 28.8709 7.295C28.8876 7.17167 28.8959 7.00167 28.8959 6.785V5.94H30.2159V7.69H31.7959V8.74H30.2159V10.87C30.2159 10.9333 30.2159 10.9967 30.2159 11.06C30.2159 11.12 30.2159 11.1783 30.2159 11.235C30.2159 11.4817 30.2459 11.68 30.3059 11.83C30.3659 11.98 30.5076 12.055 30.7309 12.055C30.8376 12.055 30.9376 12.045 31.0309 12.025C31.1276 12.005 31.1993 11.985 31.2459 11.965V12.995C31.1826 13.0183 31.0909 13.0417 30.9709 13.065C30.8509 13.0883 30.7143 13.1 30.5609 13.1ZM33.1324 10.77V9.835H36.8474L36.6974 10.085C36.6974 10.065 36.6974 10.0433 36.6974 10.02C36.6974 9.99333 36.6974 9.97167 36.6974 9.955C36.6974 9.725 36.6458 9.51 36.5424 9.31C36.4391 9.10667 36.2824 8.94333 36.0724 8.82C35.8624 8.69333 35.5958 8.63 35.2724 8.63C34.9524 8.63 34.6741 8.69833 34.4374 8.835C34.2041 8.96833 34.0224 9.16167 33.8924 9.415C33.7658 9.66833 33.7024 9.97167 33.7024 10.325C33.7024 10.6883 33.7641 11.0017 33.8874 11.265C34.0108 11.525 34.1908 11.725 34.4274 11.865C34.6674 12.0017 34.9591 12.07 35.3024 12.07C35.5358 12.07 35.7374 12.0483 35.9074 12.005C36.0774 11.9617 36.2158 11.9033 36.3224 11.83C36.4324 11.7533 36.5141 11.6717 36.5674 11.585C36.6241 11.4983 36.6574 11.4117 36.6674 11.325H37.9774C37.9574 11.5483 37.8824 11.7667 37.7524 11.98C37.6258 12.19 37.4474 12.3817 37.2174 12.555C36.9874 12.725 36.7074 12.8617 36.3774 12.965C36.0508 13.065 35.6774 13.115 35.2574 13.115C34.6874 13.115 34.1891 12.9983 33.7624 12.765C33.3358 12.5317 33.0024 12.2067 32.7624 11.79C32.5258 11.3733 32.4074 10.8967 32.4074 10.36C32.4074 9.81 32.5274 9.32833 32.7674 8.915C33.0108 8.50167 33.3474 8.18 33.7774 7.95C34.2074 7.71667 34.7008 7.6 35.2574 7.6C35.8308 7.6 36.3258 7.71667 36.7424 7.95C37.1624 8.18333 37.4858 8.50833 37.7124 8.925C37.9391 9.33833 38.0524 9.82 38.0524 10.37C38.0524 10.44 38.0508 10.515 38.0474 10.595C38.0441 10.675 38.0391 10.7333 38.0324 10.77H33.1324ZM11.8847 23.11C11.3114 23.11 10.7897 22.9633 10.3197 22.67C9.85306 22.3767 9.48139 21.9483 9.20473 21.385C8.92806 20.8217 8.78973 20.1367 8.78973 19.33C8.78973 18.52 8.93306 17.8317 9.21973 17.265C9.50639 16.6983 9.89306 16.2667 10.3797 15.97C10.8697 15.67 11.4164 15.52 12.0197 15.52C12.5197 15.52 12.9431 15.6033 13.2897 15.77C13.6397 15.9333 13.9231 16.145 14.1397 16.405C14.3597 16.665 14.5181 16.9383 14.6147 17.225C14.7147 17.5117 14.7647 17.7783 14.7647 18.025C14.7647 18.035 14.7647 18.045 14.7647 18.055C14.7647 18.065 14.7647 18.075 14.7647 18.085H13.4847C13.4847 18.075 13.4847 18.065 13.4847 18.055C13.4847 18.045 13.4847 18.035 13.4847 18.025C13.4847 17.8517 13.4547 17.6817 13.3947 17.515C13.3347 17.3483 13.2431 17.1967 13.1197 17.06C12.9964 16.9233 12.8431 16.815 12.6597 16.735C12.4764 16.655 12.2631 16.615 12.0197 16.615C11.6897 16.615 11.3797 16.7067 11.0897 16.89C10.8031 17.0733 10.5697 17.365 10.3897 17.765C10.2131 18.1617 10.1247 18.6833 10.1247 19.33C10.1247 19.82 10.1747 20.2367 10.2747 20.58C10.3747 20.9233 10.5097 21.2017 10.6797 21.415C10.8531 21.6283 11.0497 21.785 11.2697 21.885C11.4931 21.9817 11.7281 22.03 11.9747 22.03C12.3081 22.03 12.5847 21.9733 12.8047 21.86C13.0281 21.7467 13.2014 21.605 13.3247 21.435C13.4514 21.265 13.5314 21.0983 13.5647 20.935V20.36H11.9897V19.37H14.7447V23H13.9847L13.8747 22.18C13.8514 22.24 13.7964 22.3217 13.7097 22.425C13.6264 22.5283 13.5064 22.6333 13.3497 22.74C13.1931 22.8433 12.9931 22.93 12.7497 23C12.5097 23.0733 12.2214 23.11 11.8847 23.11ZM16.0653 23V17.69H17.3803V19.455L17.0753 19.285C17.1086 19.055 17.1703 18.8383 17.2603 18.635C17.3503 18.4283 17.4703 18.2483 17.6203 18.095C17.7703 17.9383 17.9519 17.8167 18.1653 17.73C18.3786 17.6433 18.6219 17.6 18.8953 17.6C19.1119 17.6 19.2819 17.6167 19.4053 17.65C19.5319 17.68 19.6103 17.705 19.6403 17.725L19.4003 18.93C19.3669 18.9067 19.2986 18.8783 19.1953 18.845C19.0953 18.8083 18.9603 18.79 18.7903 18.79C18.5203 18.79 18.2936 18.8367 18.1103 18.93C17.9303 19.02 17.7869 19.1433 17.6803 19.3C17.5736 19.4533 17.4969 19.6233 17.4503 19.81C17.4036 19.9933 17.3803 20.1767 17.3803 20.36V23H16.0653ZM22.1919 23.11C21.7952 23.11 21.4469 23.0483 21.1469 22.925C20.8469 22.7983 20.6119 22.6167 20.4419 22.38C20.2719 22.1433 20.1869 21.8583 20.1869 21.525C20.1869 21.1617 20.2852 20.8633 20.4819 20.63C20.6819 20.3933 20.9502 20.2117 21.2869 20.085C21.6236 19.955 21.9969 19.8717 22.4069 19.835C23.0136 19.775 23.4369 19.7183 23.6769 19.665C23.9202 19.6083 24.0419 19.5183 24.0419 19.395C24.0419 19.3917 24.0419 19.39 24.0419 19.39C24.0419 19.3867 24.0419 19.385 24.0419 19.385C24.0419 19.1517 23.9369 18.9717 23.7269 18.845C23.5169 18.7183 23.2202 18.655 22.8369 18.655C22.4336 18.655 22.1236 18.7267 21.9069 18.87C21.6936 19.01 21.5869 19.2333 21.5869 19.54H20.2869C20.2869 19.1233 20.3969 18.7717 20.6169 18.485C20.8402 18.195 21.1452 17.975 21.5319 17.825C21.9186 17.675 22.3569 17.6 22.8469 17.6C23.3036 17.6 23.7219 17.6683 24.1019 17.805C24.4819 17.9417 24.7869 18.1483 25.0169 18.425C25.2469 18.7017 25.3619 19.0467 25.3619 19.46C25.3619 19.53 25.3619 19.6 25.3619 19.67C25.3619 19.74 25.3619 19.81 25.3619 19.88V21.88C25.3619 22.0067 25.3652 22.1317 25.3719 22.255C25.3819 22.375 25.4002 22.4833 25.4269 22.58C25.4602 22.6867 25.5002 22.7767 25.5469 22.85C25.5936 22.9233 25.6302 22.9733 25.6569 23H24.3569C24.3336 22.9767 24.3002 22.9317 24.2569 22.865C24.2169 22.795 24.1802 22.715 24.1469 22.625C24.1136 22.525 24.0886 22.4183 24.0719 22.305C24.0552 22.1883 24.0469 22.06 24.0469 21.92L24.3069 22.1C24.2069 22.3033 24.0536 22.4817 23.8469 22.635C23.6436 22.785 23.4002 22.9017 23.1169 22.985C22.8336 23.0683 22.5252 23.11 22.1919 23.11ZM22.5119 22.075C22.7852 22.075 23.0386 22.0283 23.2719 21.935C23.5052 21.8417 23.6936 21.6983 23.8369 21.505C23.9802 21.3083 24.0519 21.0567 24.0519 20.75V20.04L24.3719 20.4C24.1586 20.48 23.9019 20.5467 23.6019 20.6C23.3019 20.65 22.9986 20.69 22.6919 20.72C22.2986 20.7567 22.0019 20.825 21.8019 20.925C21.6052 21.025 21.5069 21.1883 21.5069 21.415C21.5069 21.635 21.5902 21.8 21.7569 21.91C21.9236 22.02 22.1752 22.075 22.5119 22.075ZM22.1719 16.935L23.3619 15.625H24.4169L23.0769 16.935H22.1719ZM28.8959 23.1C28.7059 23.1 28.5126 23.0817 28.3159 23.045C28.1192 23.0083 27.9392 22.94 27.7759 22.84C27.6126 22.74 27.4809 22.5933 27.3809 22.4C27.2809 22.2067 27.2309 21.9517 27.2309 21.635C27.2309 21.5617 27.2309 21.4883 27.2309 21.415C27.2309 21.3383 27.2309 21.26 27.2309 21.18V18.74H25.9759V17.69H26.4859C26.6592 17.69 26.7959 17.6833 26.8959 17.67C26.9959 17.6533 27.0692 17.6167 27.1159 17.56C27.1626 17.5033 27.1926 17.415 27.2059 17.295C27.2226 17.1717 27.2309 17.0017 27.2309 16.785V15.94H28.5509V17.69H30.1309V18.74H28.5509V20.87C28.5509 20.9333 28.5509 20.9967 28.5509 21.06C28.5509 21.12 28.5509 21.1783 28.5509 21.235C28.5509 21.4817 28.5809 21.68 28.6409 21.83C28.7009 21.98 28.8426 22.055 29.0659 22.055C29.1726 22.055 29.2726 22.045 29.3659 22.025C29.4626 22.005 29.5342 21.985 29.5809 21.965V22.995C29.5176 23.0183 29.4259 23.0417 29.3059 23.065C29.1859 23.0883 29.0492 23.1 28.8959 23.1ZM31.0989 23V17.69H32.3989V23H31.0989ZM31.7539 16.71C31.5405 16.71 31.3539 16.6533 31.1939 16.54C31.0372 16.4233 30.9589 16.2617 30.9589 16.055C30.9589 15.8517 31.0372 15.6933 31.1939 15.58C31.3539 15.4667 31.5405 15.41 31.7539 15.41C31.9639 15.41 32.1472 15.4667 32.3039 15.58C32.4605 15.6933 32.5389 15.8517 32.5389 16.055C32.5389 16.2617 32.4605 16.4233 32.3039 16.54C32.1472 16.6533 31.9639 16.71 31.7539 16.71ZM35.847 23.11C35.5303 23.11 35.2287 23.075 34.942 23.005C34.6587 22.935 34.4053 22.83 34.182 22.69C33.962 22.55 33.787 22.3767 33.657 22.17C33.5303 21.96 33.467 21.7183 33.467 21.445C33.467 21.425 33.467 21.405 33.467 21.385C33.467 21.365 33.467 21.3467 33.467 21.33H34.777C34.777 21.3467 34.777 21.3617 34.777 21.375C34.777 21.385 34.777 21.4 34.777 21.42C34.777 21.6367 34.8753 21.8 35.072 21.91C35.272 22.0167 35.5437 22.07 35.887 22.07C36.0737 22.07 36.2487 22.05 36.412 22.01C36.5787 21.97 36.712 21.9083 36.812 21.825C36.9153 21.7417 36.967 21.635 36.967 21.505C36.967 21.295 36.8587 21.145 36.642 21.055C36.4287 20.965 36.092 20.8833 35.632 20.81C35.3787 20.7667 35.1287 20.7083 34.882 20.635C34.6353 20.5617 34.4103 20.4633 34.207 20.34C34.007 20.2167 33.8453 20.0633 33.722 19.88C33.602 19.6967 33.542 19.4733 33.542 19.21C33.542 18.86 33.6453 18.5667 33.852 18.33C34.062 18.09 34.342 17.9083 34.692 17.785C35.0453 17.6617 35.4337 17.6 35.857 17.6C36.2637 17.6 36.642 17.6667 36.992 17.8C37.342 17.9333 37.6237 18.125 37.837 18.375C38.0537 18.625 38.162 18.9267 38.162 19.28C38.162 19.2933 38.162 19.3083 38.162 19.325C38.162 19.3383 38.162 19.35 38.162 19.36H36.862C36.862 19.35 36.862 19.34 36.862 19.33C36.862 19.32 36.862 19.3083 36.862 19.295C36.862 19.1417 36.8137 19.0167 36.717 18.92C36.6203 18.8233 36.4953 18.7517 36.342 18.705C36.1887 18.6583 36.027 18.635 35.857 18.635C35.707 18.635 35.552 18.6517 35.392 18.685C35.232 18.715 35.0987 18.77 34.992 18.85C34.8853 18.9267 34.832 19.035 34.832 19.175C34.832 19.3083 34.887 19.4167 34.997 19.5C35.107 19.5833 35.2603 19.6533 35.457 19.71C35.6537 19.7633 35.8803 19.8117 36.137 19.855C36.3803 19.895 36.6253 19.95 36.872 20.02C37.122 20.09 37.3503 20.1833 37.557 20.3C37.7637 20.4167 37.9303 20.57 38.057 20.76C38.187 20.9467 38.252 21.1783 38.252 21.455C38.252 21.7483 38.1853 21.9983 38.052 22.205C37.9187 22.4117 37.737 22.5833 37.507 22.72C37.2803 22.8533 37.0237 22.9517 36.737 23.015C36.4503 23.0783 36.1537 23.11 35.847 23.11ZM40.6368 15.635L40.3868 21.045H39.5818L39.3218 15.635H40.6368ZM39.9868 23.14C39.7801 23.14 39.6051 23.0683 39.4618 22.925C39.3184 22.7817 39.2468 22.6067 39.2468 22.4C39.2468 22.1967 39.3184 22.0233 39.4618 21.88C39.6051 21.7333 39.7801 21.66 39.9868 21.66C40.1901 21.66 40.3634 21.7333 40.5068 21.88C40.6534 22.0233 40.7268 22.1967 40.7268 22.4C40.7268 22.6067 40.6534 22.7817 40.5068 22.925C40.3634 23.0683 40.1901 23.14 39.9868 23.14Z" fill="white"/>
</svg>